<svg width="380" height="139" viewBox="0 0 380 139" fill="none" xmlns="http://www.w3.org/2000/svg">
<rect width="380" height="139" fill="#F5F5F5"/>
<path d="M123.902 91.2823V43.1409H140.243C145.351 43.1409 149.6 44.2257 152.99 46.3955C156.426 48.52 159.002 51.413 160.72 55.0745C162.438 58.6908 163.297 62.7139 163.297 67.1438C163.297 72.0257 162.347 76.2748 160.449 79.8911C158.596 83.5074 155.929 86.31 152.448 88.2989C149.013 90.2878 144.944 91.2823 140.243 91.2823H123.902ZM158.55 67.1438C158.55 63.3015 157.827 59.8887 156.381 56.9052C154.979 53.9218 152.923 51.5939 150.21 49.9213C147.498 48.2036 144.176 47.3448 140.243 47.3448H128.648V87.0784H140.243C144.221 87.0784 147.566 86.197 150.278 84.434C152.99 82.6711 155.047 80.2979 156.448 77.3145C157.85 74.2859 158.55 70.8956 158.55 67.1438Z" fill="black"/>
<path d="M186.475 91.9604C183.944 91.9604 181.593 91.4857 179.424 90.5365C177.299 89.542 175.446 88.2085 173.864 86.536C172.327 84.8182 171.129 82.8745 170.27 80.7048C169.411 78.4898 168.982 76.1618 168.982 73.7209C168.982 71.1895 169.411 68.8389 170.27 66.6691C171.129 64.4542 172.349 62.5104 173.932 60.8379C175.514 59.1202 177.367 57.7867 179.492 56.8374C181.661 55.843 184.012 55.3457 186.543 55.3457C189.075 55.3457 191.403 55.843 193.527 56.8374C195.652 57.7867 197.505 59.1202 199.087 60.8379C200.669 62.5104 201.89 64.4542 202.749 66.6691C203.607 68.8389 204.037 71.1895 204.037 73.7209C204.037 76.1618 203.607 78.4898 202.749 80.7048C201.89 82.8745 200.669 84.8182 199.087 86.536C197.55 88.2085 195.697 89.542 193.527 90.5365C191.403 91.4857 189.052 91.9604 186.475 91.9604ZM173.66 73.7887C173.66 76.4104 174.225 78.8062 175.355 80.976C176.531 83.1005 178.09 84.7956 180.034 86.0613C181.978 87.2818 184.125 87.8921 186.475 87.8921C188.826 87.8921 190.973 87.2592 192.917 85.9935C194.861 84.7278 196.42 83.0101 197.595 80.8404C198.771 78.6254 199.358 76.2296 199.358 73.653C199.358 71.0313 198.771 68.6355 197.595 66.4657C196.42 64.296 194.861 62.5782 192.917 61.3126C190.973 60.0469 188.826 59.414 186.475 59.414C184.125 59.414 181.978 60.0695 180.034 61.3804C178.135 62.6913 176.598 64.4316 175.423 66.6013C174.248 68.7259 173.66 71.1217 173.66 73.7887Z" fill="black"/>
<path d="M227.072 91.9604C224.495 91.9604 222.122 91.4857 219.952 90.5365C217.828 89.542 215.952 88.1859 214.325 86.4682C212.743 84.7505 211.499 82.7841 210.595 80.5691C209.737 78.3542 209.307 76.0036 209.307 73.5174C209.307 70.1724 210.053 67.1212 211.545 64.3638C213.036 61.6064 215.116 59.414 217.783 57.7867C220.45 56.1594 223.524 55.3457 227.004 55.3457C230.304 55.3457 233.22 56.1142 235.751 57.6511C238.282 59.1428 240.158 61.177 241.379 63.7535L236.904 65.1774C235.909 63.3693 234.508 61.968 232.7 60.9735C230.937 59.9339 228.971 59.414 226.801 59.414C224.45 59.414 222.303 60.0243 220.359 61.2448C218.416 62.4652 216.856 64.1378 215.681 66.2623C214.551 68.3869 213.986 70.8052 213.986 73.5174C213.986 76.1844 214.573 78.6028 215.749 80.7726C216.924 82.9423 218.483 84.6826 220.427 85.9935C222.371 87.2592 224.518 87.8921 226.869 87.8921C228.405 87.8921 229.875 87.6209 231.276 87.0784C232.722 86.536 233.965 85.8127 235.005 84.9087C236.09 83.9594 236.813 82.9423 237.175 81.8574L241.718 83.2135C241.085 84.8861 240.023 86.4004 238.531 87.7565C237.085 89.0674 235.367 90.107 233.378 90.8755C231.434 91.5987 229.332 91.9604 227.072 91.9604Z" fill="black"/>
<path d="M248.622 76.7043V55.956H253.233V75.8906C253.233 79.9137 253.911 82.9197 255.267 84.9087C256.668 86.8976 258.725 87.8921 261.437 87.8921C263.246 87.8921 264.986 87.5079 266.658 86.7394C268.376 85.9257 269.89 84.7957 271.201 83.3492C272.512 81.8574 273.507 80.1397 274.185 78.196V55.956H278.795V85.7223C278.795 86.3552 278.931 86.8298 279.202 87.1462C279.474 87.4174 279.88 87.5756 280.423 87.6208V91.2823C279.88 91.3275 279.451 91.3501 279.134 91.3501C278.818 91.3953 278.524 91.4179 278.253 91.4179C277.349 91.3275 276.558 90.9659 275.88 90.3331C275.247 89.7002 274.908 88.9318 274.863 88.0277L274.727 83.2813C273.19 85.9935 271.088 88.1181 268.421 89.655C265.8 91.1919 262.952 91.9604 259.878 91.9604C256.171 91.9604 253.369 90.6721 251.47 88.0955C249.572 85.5189 248.622 81.7218 248.622 76.7043Z" fill="black"/>
<path d="M304.544 91.9604C301.968 91.9604 299.595 91.4857 297.425 90.5365C295.3 89.542 293.424 88.1859 291.797 86.4682C290.215 84.7505 288.972 82.7841 288.068 80.5691C287.209 78.3542 286.779 76.0036 286.779 73.5174C286.779 70.1724 287.525 67.1212 289.017 64.3638C290.509 61.6064 292.588 59.414 295.255 57.7867C297.922 56.1594 300.996 55.3457 304.477 55.3457C307.776 55.3457 310.692 56.1142 313.223 57.6511C315.755 59.1428 317.631 61.177 318.851 63.7535L314.376 65.1774C313.382 63.3693 311.98 61.968 310.172 60.9735C308.409 59.9339 306.443 59.414 304.273 59.414C301.923 59.414 299.775 60.0243 297.832 61.2448C295.888 62.4652 294.328 64.1378 293.153 66.2623C292.023 68.3869 291.458 70.8052 291.458 73.5174C291.458 76.1844 292.046 78.6028 293.221 80.7726C294.396 82.9423 295.956 84.6826 297.899 85.9935C299.843 87.2592 301.99 87.8921 304.341 87.8921C305.878 87.8921 307.347 87.6209 308.748 87.0784C310.195 86.536 311.438 85.8127 312.478 84.9087C313.562 83.9594 314.286 82.9423 314.647 81.8574L319.19 83.2135C318.557 84.8861 317.495 86.4004 316.003 87.7565C314.557 89.0674 312.839 90.107 310.85 90.8755C308.906 91.5987 306.805 91.9604 304.544 91.9604Z" fill="black"/>
<path d="M341.155 91.9604C338.624 91.9604 336.273 91.4857 334.104 90.5365C331.979 89.542 330.126 88.2085 328.544 86.536C327.007 84.8182 325.809 82.8745 324.95 80.7048C324.091 78.4898 323.662 76.1618 323.662 73.7209C323.662 71.1895 324.091 68.8389 324.95 66.6691C325.809 64.4542 327.029 62.5104 328.611 60.8379C330.193 59.1202 332.047 57.7867 334.171 56.8374C336.341 55.843 338.692 55.3457 341.223 55.3457C343.754 55.3457 346.082 55.843 348.207 56.8374C350.332 57.7867 352.185 59.1202 353.767 60.8379C355.349 62.5104 356.57 64.4542 357.428 66.6691C358.287 68.8389 358.717 71.1895 358.717 73.7209C358.717 76.1618 358.287 78.4898 357.428 80.7048C356.57 82.8745 355.349 84.8182 353.767 86.536C352.23 88.2085 350.377 89.542 348.207 90.5365C346.082 91.4857 343.732 91.9604 341.155 91.9604ZM328.34 73.7887C328.34 76.4104 328.905 78.8062 330.035 80.976C331.211 83.1005 332.77 84.7956 334.714 86.0613C336.658 87.2818 338.805 87.8921 341.155 87.8921C343.506 87.8921 345.653 87.2592 347.597 85.9935C349.54 84.7278 351.1 83.0101 352.275 80.8404C353.451 78.6254 354.038 76.2296 354.038 73.653C354.038 71.0313 353.451 68.6355 352.275 66.4657C351.1 64.296 349.54 62.5782 347.597 61.3126C345.653 60.0469 343.506 59.414 341.155 59.414C338.805 59.414 336.658 60.0695 334.714 61.3804C332.815 62.6913 331.278 64.4316 330.103 66.6013C328.928 68.7259 328.34 71.1217 328.34 73.7887Z" fill="black"/>
<path d="M38.3969 16.9512H51.729C83.7259 16.9512 101.058 35.1105 101.058 67.5377C101.058 101.262 82.3926 119.421 51.729 119.421H38.3969V16.9512Z" fill="#00A6CC"/>
<path d="M23.7317 89.5883L38.3969 76.6174V119.421H23.7317V89.5883Z" fill="#007DB3"/>
</svg>
